<svg xmlns="http://www.w3.org/2000/svg" width="600" height="134" viewBox="0 0 600 134" fill="none">
<path d="M59.2104 23.6867C57.8111 23.6867 56.4691 24.242 55.4796 25.2304C54.4901 26.2187 53.9342 27.5592 53.9342 28.9569V51.209C53.9342 52.6068 54.4901 53.9473 55.4796 54.9357C56.4691 55.924 57.8111 56.4792 59.2104 56.4792C60.6097 56.4792 61.9518 55.924 62.9412 54.9357C63.9307 53.9473 64.4866 52.6068 64.4866 51.209V28.9569C64.4866 27.5592 63.9307 26.2187 62.9412 25.2304C61.9518 24.242 60.6097 23.6867 59.2104 23.6867Z" fill="#009FFA"/>
<path d="M43.3819 36.5695C41.9825 36.5695 40.6406 37.1248 39.6511 38.1132C38.6616 39.1015 38.1057 40.442 38.1057 41.8397V64.0918C38.1057 65.4896 38.6616 66.8301 39.6511 67.8184C40.6406 68.8068 41.9825 69.362 43.3819 69.362C44.7812 69.362 46.1232 68.8068 47.1127 67.8184C48.1022 66.8301 48.658 65.4896 48.658 64.0918V41.8397C48.658 40.442 48.1022 39.1015 47.1127 38.1132C46.1232 37.1248 44.7812 36.5695 43.3819 36.5695Z" fill="#009FFA"/>
<path d="M75.0389 48.8667C73.6396 48.8667 72.2976 49.422 71.3081 50.4104C70.3187 51.3987 69.7627 52.7392 69.7627 54.1369V76.389C69.7627 77.7867 70.3187 79.1273 71.3081 80.1156C72.2976 81.104 73.6396 81.6592 75.0389 81.6592C76.4382 81.6592 77.7803 81.104 78.7698 80.1156C79.7592 79.1273 80.3151 77.7867 80.3151 76.389V54.1369C80.3151 52.7392 79.7592 51.3987 78.7698 50.4104C77.7803 49.422 76.4382 48.8667 75.0389 48.8667Z" fill="#009FFA"/>
<path d="M59.2104 61.7495C57.8111 61.7495 56.4691 62.3048 55.4796 63.2931C54.4901 64.2815 53.9342 65.622 53.9342 67.0197V89.2718C53.9342 90.6695 54.4901 92.0101 55.4796 92.9984C56.4691 93.9868 57.8111 94.542 59.2104 94.542C60.6097 94.542 61.9518 93.9868 62.9412 92.9984C63.9307 92.0101 64.4866 90.6695 64.4866 89.2718V67.0197C64.4866 65.622 63.9307 64.2815 62.9412 63.2931C61.9518 62.3048 60.6097 61.7495 59.2104 61.7495Z" fill="#009FFA"/>
<path d="M90.8674 57.1527C89.4681 57.1527 88.1261 57.708 87.1367 58.6963C86.1472 59.6847 85.5913 61.0252 85.5913 62.4229V68.1031C85.5913 69.5008 86.1472 70.8413 87.1367 71.8297C88.1261 72.818 89.4681 73.3733 90.8674 73.3733C92.2668 73.3733 93.6088 72.818 94.5983 71.8297C95.5878 70.8413 96.1436 69.5008 96.1436 68.1031V62.4229C96.1436 61.0252 95.5878 59.6847 94.5983 58.6963C93.6088 57.708 92.2668 57.1527 90.8674 57.1527Z" fill="#009FFA"/>
<path d="M27.5534 44.8555C26.154 44.8555 24.812 45.4108 23.8226 46.3991C22.8331 47.3875 22.2772 48.728 22.2772 50.1257V55.8059C22.2772 57.2036 22.8331 58.5441 23.8226 59.5325C24.812 60.5208 26.154 61.0761 27.5534 61.0761C28.9527 61.0761 30.2947 60.5208 31.2842 59.5325C32.2737 58.5441 32.8295 57.2036 32.8295 55.8059V50.1257C32.8295 48.728 32.2737 47.3875 31.2842 46.3991C30.2947 45.4108 28.9527 44.8555 27.5534 44.8555Z" fill="#009FFA"/>
<path d="M59.2104 0C43.5121 0.0170501 28.4616 6.25372 17.3612 17.3416C6.26077 28.4295 0.0170693 43.463 0 59.1437C0.0170693 74.8243 6.26077 89.8578 17.3612 100.946C28.4616 112.034 43.5121 118.27 59.2104 118.287V104.233C47.2422 104.221 35.7677 99.4665 27.3049 91.0132C18.8421 82.5599 14.0822 71.0984 14.0698 59.1437C14.0822 47.1889 18.8421 35.7274 27.3049 27.2741C35.7677 18.8208 47.2422 14.0663 59.2104 14.0539C71.1781 14.0679 82.6517 18.8229 91.1142 27.2758C99.5767 35.7288 104.337 47.1894 104.351 59.1437C104.351 78.0814 94.9711 94.5362 76.5163 108.046C71.0663 111.992 65.2724 115.441 59.2045 118.352V133.782C68.1324 130.029 76.6083 125.284 84.4716 119.634C106.678 103.525 118.415 82.6079 118.415 59.1437C118.396 43.4645 112.153 28.4328 101.054 17.3454C89.9554 6.25801 74.9072 0.0201461 59.2104 0Z" fill="#009FFA"/>
</svg>